<svg xmlns="http://www.w3.org/2000/svg" width="1440" height="480" viewBox="0 0 1440 480" role="img" aria-labelledby="title desc">
<title id="title">Academic Paper Skills</title><desc id="desc">Four manuscript pages represent writing, figures and tables, review, and evidence-based requirements. Decorative charts do not represent research results.</desc>
<rect width="1440" height="480" rx="16" fill="#F6F4ED"/>
<g transform="translate(68 54) scale(.7)"><path d="M14 0H77L112 35V118Q112 132 98 132H14Q0 132 0 118V14Q0 0 14 0Z" fill="#173F35"/>
<path d="M77 0V28Q77 35 84 35H112" fill="none" stroke="#F6F4ED" stroke-width="4"/>
<rect x="18" y="48" width="32" height="30" rx="4" fill="#AAB9A3"/>
<rect x="60" y="48" width="32" height="30" rx="4" fill="#D9E7FB"/>
<rect x="18" y="88" width="32" height="30" rx="4" fill="#BC7356"/>
<rect x="60" y="88" width="32" height="30" rx="4" fill="#AAB9A3"/></g>
<text x="168" y="102" fill="#173F35" font-family="Arial, sans-serif" font-size="14" letter-spacing="3">FOUR SKILLS. ONE WORKFLOW.</text><text x="65" y="230" fill="#173F35" font-family="Georgia, Times New Roman, serif" font-size="61">Academic</text><text x="65" y="296" fill="#173F35" font-family="Georgia, Times New Roman, serif" font-size="61">Paper Skills</text><text x="68" y="344" fill="#526A5D" font-family="Arial, PingFang SC, sans-serif" font-size="23">From evidence to manuscript</text><path d="M68 382h425" stroke="#D5D9CF"/><text x="68" y="413" fill="#526A5D" font-family="Arial, PingFang SC, sans-serif" font-size="13" letter-spacing="1">WRITE  /  VISUALIZE  /  REVIEW  /  VALIDATE</text><path d="M595 398h773" stroke="#D5D9CF" stroke-width="2"/><g transform="translate(596 82) rotate(-5 90 145)"><rect x="5" y="7" width="180" height="294" rx="2" fill="#173F35" opacity=".08"/><rect width="180" height="294" rx="2" fill="#FFFEF9" stroke="#173F35" stroke-width="1.2"/><path d="M24 30h132" stroke="#173F35" stroke-width="6"/><path d="M24 59h130" stroke="#AAB9A3" stroke-width="5"/><path d="M24 75h130" stroke="#AAB9A3" stroke-width="5"/><path d="M24 91h105" stroke="#AAB9A3" stroke-width="5"/><path d="M24 107h130" stroke="#AAB9A3" stroke-width="5"/><path d="M24 123h130" stroke="#AAB9A3" stroke-width="5"/><path d="M24 173h130" stroke="#AAB9A3" stroke-width="5"/><path d="M24 189h130" stroke="#AAB9A3" stroke-width="5"/><path d="M24 205h105" stroke="#AAB9A3" stroke-width="5"/><path d="M24 221h130" stroke="#AAB9A3" stroke-width="5"/><path d="M24 237h130" stroke="#AAB9A3" stroke-width="5"/><path d="M20 101h76M20 106h58M17 165H10v95h7" fill="none" stroke="#BC7356" stroke-width="3"/><ellipse cx="128" cy="145" rx="30" ry="13" fill="none" stroke="#BC7356" stroke-width="3" transform="rotate(-12 128 145)"/></g><g transform="translate(787 75) rotate(-2 90 145)"><rect x="5" y="7" width="180" height="294" rx="2" fill="#173F35" opacity=".08"/><rect width="180" height="294" rx="2" fill="#FFFEF9" stroke="#173F35" stroke-width="1.2"/><path d="M24 30h132" stroke="#173F35" stroke-width="6"/><path d="M24 145V64M24 145h132" stroke="#173F35" fill="none" stroke-width="2"/><polyline points="32,128 57,102 82,108 112,78 147,65" fill="none" stroke="#173F35" stroke-width="3"/><circle cx="32" cy="128" r="4" fill="#173F35"/><circle cx="57" cy="102" r="4" fill="#173F35"/><circle cx="82" cy="108" r="4" fill="#173F35"/><circle cx="112" cy="78" r="4" fill="#173F35"/><circle cx="147" cy="65" r="4" fill="#173F35"/><polyline points="32,135 57,126 82,120 112,114 147,93" fill="none" stroke="#95B4C8" stroke-width="3"/><circle cx="32" cy="135" r="4" fill="#95B4C8"/><circle cx="57" cy="126" r="4" fill="#95B4C8"/><circle cx="82" cy="120" r="4" fill="#95B4C8"/><circle cx="112" cy="114" r="4" fill="#95B4C8"/><circle cx="147" cy="93" r="4" fill="#95B4C8"/><rect x="24" y="178" width="132" height="90" fill="none" stroke="#173F35" stroke-width="1.2"/><rect x="24" y="178" width="132" height="22" fill="#AAB9A3"/><path d="M24 200h132" stroke="#AAB9A3"/><path d="M24 223h132" stroke="#AAB9A3"/><path d="M24 246h132" stroke="#AAB9A3"/><path d="M77 178v90" stroke="#AAB9A3"/><path d="M118 178v90" stroke="#AAB9A3"/></g><g transform="translate(978 82) rotate(2 90 145)"><rect x="5" y="7" width="180" height="294" rx="2" fill="#173F35" opacity=".08"/><rect width="180" height="294" rx="2" fill="#FFFEF9" stroke="#173F35" stroke-width="1.2"/><path d="M24 30h132" stroke="#173F35" stroke-width="6"/><path d="M24 59h130" stroke="#AAB9A3" stroke-width="5"/><path d="M24 75h130" stroke="#AAB9A3" stroke-width="5"/><path d="M24 91h105" stroke="#AAB9A3" stroke-width="5"/><path d="M24 107h130" stroke="#AAB9A3" stroke-width="5"/><path d="M24 123h130" stroke="#AAB9A3" stroke-width="5"/><path d="M24 139h105" stroke="#AAB9A3" stroke-width="5"/><path d="M24 155h130" stroke="#AAB9A3" stroke-width="5"/><path d="M24 171h130" stroke="#AAB9A3" stroke-width="5"/><path d="M24 187h105" stroke="#AAB9A3" stroke-width="5"/><path d="M24 203h130" stroke="#AAB9A3" stroke-width="5"/><path d="M24 219h130" stroke="#AAB9A3" stroke-width="5"/><path d="M24 235h105" stroke="#AAB9A3" stroke-width="5"/><path d="M24 251h130" stroke="#AAB9A3" stroke-width="5"/><circle cx="106" cy="151" r="48" fill="#F6F4ED" stroke="#173F35" stroke-width="7"/><path d="M77 130h56" stroke="#D9E7FB" stroke-width="7"/><path d="M77 150h56" stroke="#D9E7FB" stroke-width="7"/><path d="M77 170h56" stroke="#D9E7FB" stroke-width="7"/><path d="M141 190l29 33" stroke="#173F35" stroke-width="15" stroke-linecap="round"/></g><g transform="translate(1170 91) rotate(5 90 145)"><rect x="5" y="7" width="180" height="294" rx="2" fill="#173F35" opacity=".08"/><rect width="180" height="294" rx="2" fill="#FFFEF9" stroke="#173F35" stroke-width="1.2"/><path d="M24 30h132" stroke="#173F35" stroke-width="6"/><rect x="24" y="66" width="24" height="24" fill="none" stroke="#173F35" stroke-width="2"/><path d="M29 78l5 5 10-12" stroke="#173F35" stroke-width="2.5" fill="none"/><path d="M60 71h58M60 82h44" stroke="#AAB9A3" stroke-width="4"/><rect x="133" y="66" width="24" height="24" rx="2" fill="#AAB9A3"/><rect x="24" y="120" width="24" height="24" fill="none" stroke="#173F35" stroke-width="2"/><path d="M29 132l5 5 10-12" stroke="#173F35" stroke-width="2.5" fill="none"/><path d="M60 125h58M60 136h44" stroke="#AAB9A3" stroke-width="4"/><rect x="133" y="120" width="24" height="24" rx="2" fill="#D9E7FB"/><rect x="24" y="174" width="24" height="24" fill="none" stroke="#173F35" stroke-width="2"/><path d="M29 186l5 5 10-12" stroke="#173F35" stroke-width="2.5" fill="none"/><path d="M60 179h58M60 190h44" stroke="#AAB9A3" stroke-width="4"/><rect x="133" y="174" width="24" height="24" rx="2" fill="#BC7356"/><rect x="24" y="228" width="24" height="24" fill="none" stroke="#173F35" stroke-width="2"/><path d="M29 240l5 5 10-12" stroke="#173F35" stroke-width="2.5" fill="none"/><path d="M60 233h58M60 244h44" stroke="#AAB9A3" stroke-width="4"/><rect x="133" y="228" width="24" height="24" rx="2" fill="#DFAE36"/></g></svg>
